<svg width="24" height="24" viewBox="0 0 24 24" fill="none" xmlns="http://www.w3.org/2000/svg">
<path d="M14.8278 11.9998L19.4137 7.41375C20.1947 6.63275 20.1947 5.36675 19.4137 4.58575C18.6337 3.80475 17.3657 3.80475 16.5857 4.58575L11.9998 9.17175L7.41375 4.58575C6.63375 3.80475 5.36575 3.80475 4.58575 4.58575C3.80475 5.36675 3.80475 6.63275 4.58575 7.41375L9.17175 11.9998L4.58575 16.5857C3.80475 17.3667 3.80475 18.6327 4.58575 19.4137C4.97575 19.8047 5.48775 19.9998 5.99975 19.9998C6.51175 19.9998 7.02375 19.8047 7.41375 19.4137L11.9998 14.8278L16.5857 19.4137C16.9757 19.8047 17.4878 19.9998 17.9998 19.9998C18.5118 19.9998 19.0237 19.8047 19.4137 19.4137C20.1947 18.6327 20.1947 17.3667 19.4137 16.5857L14.8278 11.9998Z" fill="#0E1013"/>
</svg>
