<svg width="16" height="16" viewBox="0 0 16 16" fill="none" xmlns="http://www.w3.org/2000/svg">
<path fill-rule="evenodd" clip-rule="evenodd" d="M7.99994 0C7.79927 0 7.59594 0.0113333 7.39127 0.0353333C5.04661 0.306 3.09594 2.23733 2.73327 4.66533C2.45994 6.496 3.04727 8.18867 4.13661 9.38C4.79461 10.0987 5.19661 11.022 5.30261 12.0007H10.6973C10.7999 11.03 11.1893 10.1093 11.8439 9.40133C12.7659 8.404 13.3333 7.05 13.3333 5.556C13.3333 2.48733 10.9453 0 7.99994 0ZM5.33328 14.6666C5.33328 15.4026 5.93062 15.9999 6.66662 15.9999H9.33328C10.0699 15.9999 10.6666 15.4026 10.6666 14.6666V13.3333H5.33328V14.6666ZM9.14994 10.0007C9.44061 9.27267 9.85527 8.606 10.3753 8.04333C10.9933 7.37467 11.3333 6.49133 11.3333 5.55533C11.3333 3.59533 9.83794 2 7.99994 2C7.87461 2 7.74661 2.00733 7.61994 2.022C6.16394 2.19 4.94061 3.426 4.71127 4.96067C4.54127 6.09933 4.86994 7.218 5.61261 8.03C6.13527 8.60133 6.55261 9.27267 6.84461 10.0007H9.14994Z" fill="white"/>
</svg>
