<svg width="16" height="16" viewBox="0 0 16 16" fill="none" xmlns="http://www.w3.org/2000/svg">
<path fill-rule="evenodd" clip-rule="evenodd" d="M7.29333 1.492C9.28267 -0.497333 12.52 -0.497333 14.5087 1.492C16.498 3.48133 16.498 6.718 14.5093 8.708L12.316 10.9013L10.9013 9.48667L13.0947 7.29333C14.304 6.084 14.304 4.11667 13.0947 2.90733C12.49 2.30267 11.6953 2 10.9013 2C10.1067 2 9.31267 2.302 8.708 2.90667L6.51467 5.1L5.1 3.68533L7.29333 1.492ZM4.95933 11.0413C5.15467 11.2367 5.41067 11.3347 5.66667 11.3347C5.92267 11.3347 6.17867 11.2367 6.374 11.0413L11.042 6.37333C11.4327 5.98267 11.4327 5.34933 11.042 4.95867C10.6513 4.568 10.018 4.568 9.62733 4.95867L4.95933 9.62667C4.56867 10.0173 4.56867 10.6507 4.95933 11.0413ZM7.29333 13.0933C6.08467 14.3027 4.11667 14.3033 2.90667 13.0933C1.69733 11.884 1.69733 9.91667 2.90667 8.70733L5.1 6.514L3.68533 5.09933L1.492 7.29267C-0.497333 9.282 -0.497333 12.5187 1.492 14.508C2.48667 15.5027 3.79333 16 5.09933 16C6.40533 16 7.71267 15.5027 8.70667 14.508L10.9 12.3147L9.48533 10.9L7.29333 13.0933Z" fill="#FBFBFB"/>
</svg>
