<svg width="16" height="16" viewBox="0 0 16 16" fill="none" xmlns="http://www.w3.org/2000/svg">
<path fill-rule="evenodd" clip-rule="evenodd" d="M11.742 9.85675L14.9427 13.0574C15.4634 13.5781 15.4634 14.4221 14.9427 14.9427C14.6827 15.2034 14.3414 15.3334 14 15.3334C13.6587 15.3334 13.3174 15.2034 13.0574 14.9427L9.85669 11.7421C8.93202 12.3247 7.84069 12.6667 6.66669 12.6667C3.35269 12.6667 0.666687 9.98075 0.666687 6.66675C0.666687 3.35275 3.35269 0.666748 6.66669 0.666748C9.98069 0.666748 12.6667 3.35275 12.6667 6.66675C12.6667 7.84075 12.3247 8.93208 11.742 9.85675ZM3.33335 6.66675C3.33335 8.50475 4.82869 10.0001 6.66669 10.0001C8.50469 10.0001 10 8.50475 10 6.66675C10 4.82875 8.50469 3.33341 6.66669 3.33341C4.82869 3.33341 3.33335 4.82875 3.33335 6.66675Z" fill="#0E1013"/>
</svg>
